<svg xmlns="http://www.w3.org/2000/svg" viewBox="0 0 1389.39 754.97"><defs><style>.cls-1{fill:#efecef;}.cls-2{fill:none;stroke-width:19px;}.cls-2,.cls-3{stroke:#141314;stroke-miterlimit:10;}.cls-3{fill:#141314;stroke-width:2px;}</style></defs><title>eye_open</title><g id="Calque_2" data-name="Calque 2"><g id="Calque_1-2" data-name="Calque 1"><path class="cls-1" d="M47.11,462.26c158.1,152.24,696.8,575,1328.27-.65a43.17,43.17,0,0,0,0-63.66C743.83-177.84,205.09,245.15,47.1,397.3A45,45,0,0,0,47.11,462.26Z"/><path class="cls-2" d="M23.34,367.21c158.11,152.24,696.81,575,1328.28-.65a43.19,43.19,0,0,0,0-63.67C720.07-272.89,181.33,150.09,23.34,302.25A45,45,0,0,0,23.34,367.21Z"/><circle class="cls-2" cx="685.4" cy="331.16" r="320.81"/><path class="cls-3" d="M871.55,331.16A186.14,186.14,0,0,1,685.4,517.31c-102.82,0-186.16-83.33-186.16-186.15S582.58,145,685.4,145a178.16,178.16,0,0,1,27,2l-1.59,16.48L697.67,304.39l128.65-59,19.32-8.87A184.75,184.75,0,0,1,871.55,331.16Z"/></g></g></svg>