<svg xmlns="http://www.w3.org/2000/svg" width="43.143" height="51.155" viewBox="0 0 43.143 51.155">
  <g id="fil_actu_icon" transform="translate(-4194 -8412.589)">
    <path id="Tracé_92" data-name="Tracé 92" d="M1002,478.276H982V451.6l20-17.6Z" transform="translate(3215.134 7985.468)" fill="#d60036"/>
    <path id="Tracé_93" data-name="Tracé 93" d="M1002,478.276H982V451.6l20-17.6Z" transform="translate(3215.134 7985.468)" fill="#d60036"/>
    <path id="Tracé_94" data-name="Tracé 94" d="M1132,478.276h20V451.6L1132,434Z" transform="translate(3085.138 7985.468)" fill="#d60036"/>
    <path id="Rectangle_52" data-name="Rectangle 52" d="M4,0H4A4,4,0,0,1,8,4V17a0,0,0,0,1,0,0H0a0,0,0,0,1,0,0V4A4,4,0,0,1,4,0Z" transform="translate(4213.603 8446.744)" fill="#d60036"/>
    <path id="Tracé_98" data-name="Tracé 98" d="M986,437.276H966V410.6L986,393" transform="translate(3229 8021)" fill="none" stroke="#efecef" stroke-linecap="round" stroke-linejoin="round" stroke-width="2"/>
    <path id="Tracé_99" data-name="Tracé 99" d="M986,437.276H966V410.6L986,393" transform="translate(3229 8021)" fill="none" stroke="#efecef" stroke-linecap="round" stroke-linejoin="round" stroke-width="2"/>
    <path id="Tracé_100" data-name="Tracé 100" d="M1116,437.276h20V410.6L1116,393" transform="translate(3099.004 8021)" fill="none" stroke="#efecef" stroke-linecap="round" stroke-linejoin="round" stroke-width="2"/>
    <path id="Rectangle_54" data-name="Rectangle 54" d="M4.5,0h0A4.5,4.5,0,0,1,9,4.5V16a0,0,0,0,1,0,0H0a0,0,0,0,1,0,0V4.5A4.5,4.5,0,0,1,4.5,0Z" transform="translate(4210.603 8441.744)" fill="none" stroke="#efecef" stroke-linecap="round" stroke-linejoin="round" stroke-width="2"/>
  </g>
</svg>
