<svg xmlns="http://www.w3.org/2000/svg" width="30" height="30" viewBox="0 0 30 30">
  <g id="Groupe_318" data-name="Groupe 318" transform="translate(-1034 -604)">
    <g id="Groupe_317" data-name="Groupe 317" transform="translate(1037.3 604)">
      <g id="Groupe_319" data-name="Groupe 319" transform="translate(0)">
        <g id="Tracé_8" data-name="Tracé 8" transform="translate(3258.155 -4572.35)" fill="none">
          <path d="M-3254.551,4601.667s-.934-4.17-1.964-8.863-1.64-9.57-1.64-9.57a9.553,9.553,0,0,1,.563-1.262,4.566,4.566,0,0,1,.657-.888s-.281-.348.141-.951a7.555,7.555,0,0,1,1.531-1.356,2.023,2.023,0,0,1,.361-1.855,4.655,4.655,0,0,1,2.706-2.057c1.017-.156,1.291,0,1.291,0a3.148,3.148,0,0,1,1.039-.718,2,2,0,0,1,1.179,0s.025-1.713,1.229-1.792a1.177,1.177,0,0,1,1.263,1.153,6.218,6.218,0,0,1,1.63-.265,1.093,1.093,0,0,1,.907.468,2.782,2.782,0,0,1,1.782,0,2.107,2.107,0,0,1,.714,1.382,4.448,4.448,0,0,1,1.289.785,3.586,3.586,0,0,1,.86,1.216l.923,1a5.224,5.224,0,0,1,.844,1.091,2.334,2.334,0,0,1,.223,1.073,4.037,4.037,0,0,1,1.044.548,1.041,1.041,0,0,1,.345.78s.182,1.185-.678,5.81c-.251,1.351-.244,2.239-.934,5.412s-1.826,7.277-1.826,7.277l-3.158,2.2s-3.1.154-6.176,0S-3254.551,4601.667-3254.551,4601.667Z" stroke="none"/>
          <path d="M -3245.43603515625 4600.35009765625 C -3244.365478515625 4600.35009765625 -3243.448486328125 4600.32568359375 -3242.893798828125 4600.306640625 L -3240.811279296875 4598.85498046875 C -3240.4619140625 4597.560546875 -3239.7041015625 4594.6953125 -3239.200439453125 4592.37890625 C -3238.7587890625 4590.34912109375 -3238.612548828125 4589.28515625 -3238.4951171875 4588.43017578125 C -3238.431396484375 4587.96630859375 -3238.371337890625 4587.52783203125 -3238.2783203125 4587.02685546875 C -3237.750732421875 4584.18994140625 -3237.6396484375 4582.767578125 -3237.62060546875 4582.16650390625 C -3237.642333984375 4582.15771484375 -3237.66357421875 4582.1494140625 -3237.68359375 4582.14208984375 L -3239.23046875 4581.7490234375 L -3239.02294921875 4580.15478515625 C -3239.025390625 4580.12548828125 -3239.031005859375 4580.091796875 -3239.03662109375 4580.07275390625 C -3239.100341796875 4579.95654296875 -3239.318603515625 4579.68994140625 -3239.49462890625 4579.51416015625 L -3239.52294921875 4579.48681640625 L -3239.558837890625 4579.4482421875 L -3240.481689453125 4578.4501953125 L -3240.739013671875 4578.2109375 L -3240.871337890625 4577.833984375 C -3240.9130859375 4577.74462890625 -3241.0400390625 4577.5166015625 -3241.208251953125 4577.365234375 C -3241.436279296875 4577.1611328125 -3241.740234375 4577.01416015625 -3241.85302734375 4576.96875 L -3243.00732421875 4576.57861328125 L -3243.11328125 4575.63525390625 L -3244.5908203125 4576.11767578125 L -3245.060791015625 4575.2890625 C -3245.25146484375 4575.32470703125 -3245.4599609375 4575.37451171875 -3245.614990234375 4575.42041015625 L -3246.658203125 4575.759765625 L -3246.63623046875 4576.947265625 L -3249.24755859375 4576.06689453125 C -3249.312255859375 4576.11181640625 -3249.3916015625 4576.1767578125 -3249.447021484375 4576.23193359375 L -3250.484375 4577.40234375 L -3251.546142578125 4576.79931640625 C -3251.62939453125 4576.8056640625 -3251.743896484375 4576.8173828125 -3251.893798828125 4576.84033203125 C -3252.10791015625 4576.873046875 -3252.672119140625 4577.2392578125 -3253.27392578125 4578.08154296875 C -3253.310791015625 4578.13330078125 -3253.329833984375 4578.17138671875 -3253.339599609375 4578.1962890625 L -3252.797119140625 4579.5205078125 L -3254.141357421875 4580.431640625 C -3254.274169921875 4580.521484375 -3254.43310546875 4580.6396484375 -3254.586669921875 4580.76123046875 L -3254.191650390625 4581.22705078125 L -3255.514892578125 4582.49169921875 C -3255.55078125 4582.53076171875 -3255.712646484375 4582.7119140625 -3255.852294921875 4582.95751953125 C -3255.935546875 4583.1044921875 -3256.0263671875 4583.30078125 -3256.10498046875 4583.4853515625 C -3255.923095703125 4584.83203125 -3255.372802734375 4588.68310546875 -3254.56201171875 4592.375 C -3253.89404296875 4595.416015625 -3253.261474609375 4598.26123046875 -3252.903076171875 4599.86962890625 C -3251.75634765625 4600.01123046875 -3250.02734375 4600.1982421875 -3248.306396484375 4600.2841796875 C -3247.43115234375 4600.328125 -3246.46533203125 4600.35009765625 -3245.43603515625 4600.35009765625 M -3245.43603515625 4602.35009765625 C -3246.35107421875 4602.35009765625 -3247.37939453125 4602.3330078125 -3248.40625 4602.28173828125 C -3251.486572265625 4602.1279296875 -3254.551025390625 4601.6669921875 -3254.551025390625 4601.6669921875 C -3254.551025390625 4601.6669921875 -3255.484619140625 4597.49658203125 -3256.515380859375 4592.80419921875 C -3257.5458984375 4588.11181640625 -3258.1552734375 4583.23388671875 -3258.1552734375 4583.23388671875 C -3258.1552734375 4583.23388671875 -3257.897216796875 4582.509765625 -3257.59228515625 4581.9716796875 C -3257.287109375 4581.4345703125 -3256.935546875 4581.08349609375 -3256.935546875 4581.08349609375 C -3256.935546875 4581.08349609375 -3257.216552734375 4580.73583984375 -3256.794677734375 4580.13232421875 C -3256.372802734375 4579.52783203125 -3255.263427734375 4578.77587890625 -3255.263427734375 4578.77587890625 C -3255.263427734375 4578.77587890625 -3255.614501953125 4577.9189453125 -3254.90234375 4576.92041015625 C -3254.18994140625 4575.92333984375 -3253.21337890625 4575.01904296875 -3252.19677734375 4574.86328125 C -3251.85791015625 4574.8115234375 -3251.6015625 4574.7939453125 -3251.41015625 4574.7939453125 C -3251.027587890625 4574.7939453125 -3250.90576171875 4574.86328125 -3250.90576171875 4574.86328125 C -3250.90576171875 4574.86328125 -3250.43017578125 4574.3515625 -3249.866455078125 4574.14501953125 C -3249.678466796875 4574.07568359375 -3249.48486328125 4574.052734375 -3249.310302734375 4574.052734375 C -3248.960693359375 4574.052734375 -3248.687255859375 4574.14501953125 -3248.687255859375 4574.14501953125 C -3248.687255859375 4574.14501953125 -3248.662353515625 4572.431640625 -3247.4580078125 4572.35302734375 C -3247.42138671875 4572.3505859375 -3247.385986328125 4572.349609375 -3247.351318359375 4572.349609375 C -3246.250244140625 4572.349609375 -3246.194580078125 4573.50634765625 -3246.194580078125 4573.50634765625 C -3246.194580078125 4573.50634765625 -3245.312255859375 4573.2392578125 -3244.6591796875 4573.2392578125 C -3244.627197265625 4573.2392578125 -3244.595703125 4573.23974609375 -3244.56494140625 4573.2412109375 C -3243.90625 4573.271484375 -3243.65771484375 4573.70947265625 -3243.65771484375 4573.70947265625 C -3243.65771484375 4573.70947265625 -3243.1318359375 4573.54638671875 -3242.603759765625 4573.54638671875 C -3242.339599609375 4573.54638671875 -3242.074951171875 4573.58740234375 -3241.875244140625 4573.70947265625 C -3241.275634765625 4574.076171875 -3241.16162109375 4575.091796875 -3241.16162109375 4575.091796875 C -3241.16162109375 4575.091796875 -3240.466552734375 4575.34423828125 -3239.873046875 4575.87646484375 C -3239.27978515625 4576.4091796875 -3239.01318359375 4577.09228515625 -3239.01318359375 4577.09228515625 L -3238.09033203125 4578.09033203125 C -3238.09033203125 4578.09033203125 -3237.5048828125 4578.66650390625 -3237.24609375 4579.181640625 C -3236.987060546875 4579.69580078125 -3237.023193359375 4580.25439453125 -3237.023193359375 4580.25439453125 C -3237.023193359375 4580.25439453125 -3236.346923828125 4580.49072265625 -3235.97900390625 4580.802734375 C -3235.611572265625 4581.11474609375 -3235.6337890625 4581.5830078125 -3235.6337890625 4581.5830078125 C -3235.6337890625 4581.5830078125 -3235.4521484375 4582.76806640625 -3236.31201171875 4587.392578125 C -3236.562744140625 4588.7431640625 -3236.555908203125 4589.6318359375 -3237.24609375 4592.80419921875 C -3237.935791015625 4595.97607421875 -3239.072265625 4600.0810546875 -3239.072265625 4600.0810546875 L -3242.22998046875 4602.28173828125 C -3242.22998046875 4602.28173828125 -3243.606201171875 4602.35009765625 -3245.43603515625 4602.35009765625 Z" stroke="none" fill="#fff"/>
        </g>
        <path id="Tracé_9" data-name="Tracé 9" d="M-3244.6,4580.89l.84-.95s-.11-.789,1.552,1.151c0,0,.835-1.119,1.717-1.06s1.735,1.3,1.735,1.3,1.1-1.279,1.808-1.3c.712,0,1.68,1.06,1.68,1.06s.844-1.165,1.789-1.242,1.808,1.479,1.808,1.479.987-1.365,1.917-1.388,1.68,1.388,1.68,1.388.683-1.787.968-1.132l.237.383s.338-.68.6-.639.6.858.6.858h0l.785-.858c.32-.073.493.566.493.566" transform="translate(3245.579 -4570.051)" fill="none" stroke="#fff" stroke-width="1"/>
        <path id="Tracé_10" data-name="Tracé 10" d="M-3242.158,4581.119s-.152-.888.406,3.456,1.826,13.921,1.826,13.921" transform="translate(3245.537 -4570.123)" fill="none" stroke="#fff" stroke-width="0.5"/>
        <path id="Tracé_11" data-name="Tracé 11" d="M-3238.766,4581.406l.5,17.284" transform="translate(3245.584 -4570.113)" fill="none" stroke="#fff" stroke-width="0.5"/>
        <path id="Tracé_12" data-name="Tracé 12" d="M-3235.176,4581.184l-.089-.077.109,17.781" transform="translate(3245.586 -4569.971)" fill="none" stroke="#fff" stroke-width="0.5"/>
        <path id="Tracé_13" data-name="Tracé 13" d="M-3231.656,4581.469l-.735,17.313" transform="translate(3245.59 -4570.113)" fill="none" stroke="#fff" stroke-width="0.5"/>
        <path id="Tracé_14" data-name="Tracé 14" d="M-3228.711,4581.822l-.421,3.208-1.826,13.9" transform="translate(3246.257 -4570.217)" fill="none" stroke="#fff" stroke-width="0.5"/>
        <path id="Tracé_15" data-name="Tracé 15" d="M-3227.208,4580.672s.05-.026-.458,4.184-1.99,12.834-1.99,12.834" transform="translate(3246.006 -4570.114)" fill="none" stroke="#fff" stroke-width="0.5"/>
        <path id="Tracé_16" data-name="Tracé 16" d="M-3226.253,4581.031l-.732,5.435-1.722,10.352" transform="translate(3246.13 -4570.114)" fill="none" stroke="#fff" stroke-width="0.5"/>
      </g>
    </g>
    <rect id="Rectangle_39" data-name="Rectangle 39" width="8" height="2" transform="translate(1056 614.963)" fill="none"/>
    <rect id="Rectangle_40" data-name="Rectangle 40" width="8" height="2" transform="translate(1034 612.969)" fill="none"/>
  </g>
</svg>
