<svg xmlns="http://www.w3.org/2000/svg" width="49.895" height="49.895" viewBox="0 0 49.895 49.895">
  <g id="settings_icon" transform="translate(-513.553 21.448)">
    <g id="Groupe_325" data-name="Groupe 325" transform="translate(516 -19)">
      <path id="Tracé_1" data-name="Tracé 1" d="M558.952,81.835a22.886,22.886,0,0,1-2.773,6.715,5.565,5.565,0,0,0-6.964.042,1.707,1.707,0,0,0-.39.388,5.557,5.557,0,0,0-.041,7.011.03.03,0,0,1-.007.045A22.841,22.841,0,0,1,541.631,99a5.267,5.267,0,0,0-10.466-.048,22.81,22.81,0,0,1-6.94-2.914.031.031,0,0,1-.007-.046,5.557,5.557,0,0,0-.041-7.011,1.7,1.7,0,0,0-.39-.388,5.565,5.565,0,0,0-6.964-.042A22.891,22.891,0,0,1,514,81.631a5.267,5.267,0,0,0,.049-10.466,22.869,22.869,0,0,1,2.849-6.838.022.022,0,0,1,.032-.006A5.587,5.587,0,0,0,523.8,64.2a1.692,1.692,0,0,0,.4-.4,5.587,5.587,0,0,0,.125-6.869.022.022,0,0,1,.006-.032,22.87,22.87,0,0,1,6.838-2.848A5.267,5.267,0,0,0,541.631,54a22.907,22.907,0,0,1,7.7,3.323,5.586,5.586,0,0,0,.129,6.93,1.7,1.7,0,0,0,.412.4,5.628,5.628,0,0,0,6.588.265A22.908,22.908,0,0,1,559,71.369a5.267,5.267,0,0,0-.048,10.466Z" transform="translate(-514 -54)" fill="none" stroke="#fff" stroke-miterlimit="10" stroke-width="4"/>
      <circle id="Ellipse_2" data-name="Ellipse 2" cx="8.5" cy="8.5" r="8.5" transform="translate(14 14)" fill="none" stroke="#fff" stroke-miterlimit="10" stroke-width="4"/>
    </g>
  </g>
</svg>
