<svg xmlns="http://www.w3.org/2000/svg" width="38.019" height="35.001" viewBox="0 0 38.019 35.001">
  <path id="Icon_awesome-comment" data-name="Icon awesome-comment" d="M18,2.25C8.058,2.25,0,9.108,0,17.571A13.911,13.911,0,0,0,4.008,27.2,18.925,18.925,0,0,1,.155,34.256a.607.607,0,0,0-.1.641.551.551,0,0,0,.513.354,15.67,15.67,0,0,0,9.886-3.786A20.58,20.58,0,0,0,18,32.893c9.942,0,18-6.858,18-15.321S27.942,2.25,18,2.25Z" transform="translate(1.019 -1.25)" fill="none" stroke="#fff" stroke-width="2"/>
</svg>
