<svg xmlns="http://www.w3.org/2000/svg" width="107.673" height="127.326" viewBox="0 0 107.673 127.326">
  <g id="home_icon" transform="translate(-4194 -8412.589)">
    <path id="Tracé_92" data-name="Tracé 92" d="M1032.636,546.075H982V478.56L1032.636,434Z" transform="translate(3218.401 7993.84)" fill="#d60036"/>
    <path id="Tracé_93" data-name="Tracé 93" d="M1032.636,546.075H982V478.56L1032.636,434Z" transform="translate(3218.401 7993.84)" fill="#d60036"/>
    <path id="Tracé_94" data-name="Tracé 94" d="M1132,546.075h50.636V478.56L1132,434Z" transform="translate(3119.037 7993.84)" fill="#d60036"/>
    <path id="Rectangle_52" data-name="Rectangle 52" d="M10.5,0h0A10.5,10.5,0,0,1,21,10.5V43a0,0,0,0,1,0,0H0a0,0,0,0,1,0,0V10.5A10.5,10.5,0,0,1,10.5,0Z" transform="translate(4241.134 8496.915)" fill="#d60036"/>
    <path id="Tracé_98" data-name="Tracé 98" d="M1016.636,505.074H966V437.56L1016.636,393" transform="translate(3229 8021)" fill="none" stroke="#efecef" stroke-linecap="round" stroke-linejoin="round" stroke-width="2"/>
    <path id="Tracé_99" data-name="Tracé 99" d="M1016.636,505.074H966V437.56L1016.636,393" transform="translate(3229 8021)" fill="none" stroke="#efecef" stroke-linecap="round" stroke-linejoin="round" stroke-width="2"/>
    <path id="Tracé_100" data-name="Tracé 100" d="M1116,505.074h50.636V437.56L1116,393" transform="translate(3129.636 8021)" fill="none" stroke="#efecef" stroke-linecap="round" stroke-linejoin="round" stroke-width="2"/>
    <path id="Rectangle_54" data-name="Rectangle 54" d="M10.5,0h0A10.5,10.5,0,0,1,21,10.5V41a0,0,0,0,1,0,0H0a0,0,0,0,1,0,0V10.5A10.5,10.5,0,0,1,10.5,0Z" transform="translate(4235.134 8484.915)" fill="none" stroke="#efecef" stroke-linecap="round" stroke-linejoin="round" stroke-width="2"/>
  </g>
</svg>
