<svg xmlns="http://www.w3.org/2000/svg" viewBox="0 0 86 69"><defs><style>.cls-1{fill:none;stroke:#efecef;stroke-linecap:round;stroke-linejoin:round;stroke-width:5px;}.cls-2{fill:#d60036;}</style></defs><title>Fichier 1</title><g id="Calque_2" data-name="Calque 2"><g id="Calque_1-2" data-name="Calque 1"><polyline class="cls-1" points="44.69 20.68 54.39 16.14 64.09 11.59 73.8 7.04 83.5 2.5 83.5 8.75 83.5 15 83.5 21.25 83.5 27.5"/><polyline class="cls-1" points="83.5 27.5 83.5 33.75 83.5 40 83.5 46.25 83.5 52.5 73.8 47.95 64.09 43.41"/><circle class="cls-2" cx="18" cy="27" r="6.5"/></g><g id="Calque_4" data-name="Calque 4"><line class="cls-1" x1="39.5" y1="11.5" x2="11.5" y2="11.5"/><polyline class="cls-1" points="39.99 66.5 56.5 66.5 56.5 29.5"/><line class="cls-1" x1="39.5" y1="11.5" x2="11.5" y2="11.5"/><polyline class="cls-1" points="39.99 66.5 56.5 66.5 56.5 29.5"/><polyline class="cls-1" points="30 11.5 39 29 29 47 38 66.5"/><polyline class="cls-1" points="2.5 47.5 2.5 11.5 11.5 11.5"/><line class="cls-1" x1="39.99" y1="66.5" x2="20.5" y2="66.5"/><polyline class="cls-1" points="2.5 47.5 2.5 11.5 11.5 11.5"/><line class="cls-1" x1="39.99" y1="66.5" x2="20.5" y2="66.5"/></g></g></svg>