<svg xmlns="http://www.w3.org/2000/svg" width="41.735" height="49" viewBox="0 0 41.735 49">
  <g id="notifications_icon" transform="translate(-1250.352 -93.209)">
    <path id="Tracé_71" data-name="Tracé 71" d="M2175.352,5218.683v-3.25l5.486-5.448s0-4.258,0-8.9c0-1.875.014-3.941,0-5.7-.029-3.658,2.512-6.64,5.6-8.672a16.564,16.564,0,0,1,4.74-2.125s-.714-4.382,3.1-4.382,3.11,4.39,3.118,4.382c4.42,1.083,10.247,5.143,10.242,10.8,0,1.543,0,3.365,0,5.347,0,4.541,0,9.249,0,9.249l5.445,5.51v3.14Z" transform="translate(-923 -5085)" fill="none" stroke="#fff" stroke-linejoin="round" stroke-width="4"/>
    <path id="Tracé_72" data-name="Tracé 72" d="M2202.921,5260.523s-.118,6.581,6.437,6.581,6.6-6.581,6.6-6.581" transform="translate(-937.993 -5126.895)" fill="none" stroke="#fff" stroke-linejoin="round" stroke-width="4"/>
  </g>
</svg>
