<svg xmlns="http://www.w3.org/2000/svg" width="46.121" height="51.216" viewBox="0 0 46.121 51.216">
  <g id="Groupe_329" data-name="Groupe 329" transform="translate(-1390.397 -199.329)">
    <path id="Tracé_170" data-name="Tracé 170" d="M1394.537,5404.045v-25.627l22.161-19.932,19.68,18.142v27.417Z" transform="translate(0.14 -5153.5)" fill="#d60036"/>
    <g id="fil_actu_icon" transform="translate(1391.397 200.657)">
      <path id="Tracé_99" data-name="Tracé 99" d="M987.08,439.659H966V411.552l21.892-18.463" transform="translate(-966 -393)" fill="none" stroke="#fff" stroke-linecap="round" stroke-linejoin="round" stroke-width="2"/>
      <path id="Tracé_100" data-name="Tracé 100" d="M1116,439.659h21.08V411.552l-20.237-18.467" transform="translate(-1094.92 -393)" fill="none" stroke="#fff" stroke-linecap="round" stroke-linejoin="round" stroke-width="2"/>
      <path id="Rectangle_54" data-name="Rectangle 54" d="M4.5,0h0A4.5,4.5,0,0,1,9,4.5V18a0,0,0,0,1,0,0H0a0,0,0,0,1,0,0V4.5A4.5,4.5,0,0,1,4.5,0Z" transform="translate(17.603 28.395)" fill="none" stroke="#fff" stroke-linecap="round" stroke-linejoin="round" stroke-width="2"/>
    </g>
  </g>
</svg>
