<svg xmlns="http://www.w3.org/2000/svg" width="59.269" height="41.051" viewBox="0 0 59.269 41.051">
  <g id="Groupe_454" data-name="Groupe 454" transform="translate(-1361.613 -309.975)">
    <path id="Tracé_249" data-name="Tracé 249" d="M199.537,778.093H166.5s0-3.087,0-26.593h33.037Z" transform="translate(1199.181 -427.068)" fill="#d60036"/>
    <path id="Tracé_250" data-name="Tracé 250" d="M325.532,755.692H304.5c0-31.968,0-35.192,0-35.192h21.032S325.532,723.724,325.532,755.692Z" transform="translate(1077.702 -404.667)" fill="#d60036"/>
    <path id="Tracé_251" data-name="Tracé 251" d="M442.5,801.328V780.5h33.037v20.828Z" transform="translate(945.346 -450.303)" fill="#d60036"/>
    <path id="Tracé_252" data-name="Tracé 252" d="M3.5,34.5H20.009V62.27H3.5V57.882c0-21.418,0-23.382,0-23.382Z" transform="translate(1359.113 285.044)" fill="none" stroke="#fff" stroke-linecap="round" stroke-linejoin="round" stroke-width="2"/>
    <path id="Tracé_253" data-name="Tracé 253" d="M141.5,3.5h20.967V39.84H141.5Z" transform="translate(1237.622 307.475)" fill="none" stroke="#fff" stroke-linecap="round" stroke-linejoin="round" stroke-width="2"/>
    <path id="Tracé_254" data-name="Tracé 254" d="M279.5,63.5l17.748,0V85.5H279.5v-22Z" transform="translate(1120.589 261.817)" fill="none" stroke="#fff" stroke-linecap="round" stroke-linejoin="round" stroke-width="2"/>
    <text id="_2" data-name="2" transform="translate(1368.289 338.197)" fill="#fff" font-size="11" font-family="Montserrat-ExtraBold, Montserrat" font-weight="800"><tspan x="0" y="0">2</tspan></text>
    <text id="_1" data-name="1" transform="translate(1387.605 334.197)" fill="#fff" font-size="11" font-family="Montserrat-ExtraBold, Montserrat" font-weight="800"><tspan x="0" y="0">1</tspan></text>
    <text id="_3" data-name="3" transform="translate(1405.963 341.429)" fill="#fff" font-size="11" font-family="Montserrat-ExtraBold, Montserrat" font-weight="800"><tspan x="0" y="0">3</tspan></text>
  </g>
</svg>
