<svg xmlns="http://www.w3.org/2000/svg" width="37.389" height="51.606" viewBox="0 0 37.389 51.606">
  <g id="Groupe_328" data-name="Groupe 328" transform="translate(-6178 -8102.948)">
    <path id="Tracé_169" data-name="Tracé 169" d="M10.576,0A10.576,10.576,0,1,1,0,10.576,10.576,10.576,0,0,1,10.576,0Z" transform="translate(6188.126 8106.196)" fill="#d60036"/>
    <path id="Tracé_167" data-name="Tracé 167" d="M959.127,593.543H925c.021-13.667,7.653-24.736,17.063-24.736S959.105,579.876,959.127,593.543Z" transform="translate(5256.262 7561.011)" fill="#d60036"/>
    <g id="Ellipse_44" data-name="Ellipse 44" transform="translate(6185 8102.948)" fill="none" stroke="#fff" stroke-miterlimit="10" stroke-width="1">
      <circle cx="11.576" cy="11.576" r="11.576" stroke="none"/>
      <circle cx="11.576" cy="11.576" r="11.076" fill="none"/>
    </g>
    <g id="Tracé_168" data-name="Tracé 168" transform="translate(5265 7569.617)" fill="none" stroke-miterlimit="10">
      <path d="M948.866,582.938H913c.023-13.885,8.043-25.131,17.933-25.131S948.843,569.052,948.866,582.938Z" stroke="none"/>
      <path d="M 947.8497314453125 581.9375610351562 C 947.4598999023438 569.0935668945312 940.0131225585938 558.8070068359375 930.932861328125 558.8070068359375 C 921.8524780273438 558.8070068359375 914.4057006835938 569.0935668945312 914.0159912109375 581.9375610351562 L 947.8497314453125 581.9375610351562 M 948.86572265625 582.9375610351562 L 913 582.9375610351562 C 913.0225830078125 569.0524291992188 921.042724609375 557.8070068359375 930.932861328125 557.8070068359375 C 940.8231201171875 557.8070068359375 948.843017578125 569.0524291992188 948.86572265625 582.9375610351562 Z" stroke="none" fill="#fff"/>
    </g>
  </g>
</svg>
