<svg xmlns="http://www.w3.org/2000/svg" width="51.546" height="50.912" viewBox="0 0 51.546 50.912">
  <g id="rouge_snb" data-name="rouge snb" transform="translate(-540.852 -88.504)">
    <path id="Tracé_230" data-name="Tracé 230" d="M566.893,205.46v31.075H612.55V205.46Zm24.99,19.964h-2.949V218.9h-1.5v-2.226h4.449Z" transform="translate(-20.152 -97.119)" fill="#d60036"/>
    <rect id="Rectangle_104" data-name="Rectangle 104" width="45.657" height="8.443" transform="translate(591.867 101.911) rotate(170.753)" fill="#d60036"/>
    <g id="Groupe_430" data-name="Groupe 430" transform="translate(549.846 92.571)">
      <line id="Ligne_108" data-name="Ligne 108" x2="1.348" y2="8.278" transform="translate(34.954 0)" fill="#d60036"/>
      <line id="Ligne_109" data-name="Ligne 109" x2="1.348" y2="8.278" transform="translate(27.964 1.138)" fill="#d60036"/>
      <line id="Ligne_110" data-name="Ligne 110" x2="1.348" y2="8.278" transform="translate(20.973 2.276)" fill="#d60036"/>
      <line id="Ligne_111" data-name="Ligne 111" x2="1.348" y2="8.278" transform="translate(13.982 3.415)" fill="#d60036"/>
      <line id="Ligne_112" data-name="Ligne 112" x2="1.348" y2="8.278" transform="translate(6.991 4.553)" fill="#d60036"/>
      <line id="Ligne_113" data-name="Ligne 113" x2="1.348" y2="8.278" transform="translate(0 5.691)" fill="#d60036"/>
    </g>
    <rect id="Rectangle_105" data-name="Rectangle 105" width="45.657" height="31.075" transform="translate(588.951 136.411) rotate(180)" fill="none" stroke="#fff" stroke-linejoin="round" stroke-miterlimit="10" stroke-width="2"/>
    <rect id="Rectangle_106" data-name="Rectangle 106" width="45.657" height="8.443" transform="translate(588.42 97.985) rotate(170.753)" fill="none" stroke="#fff" stroke-linejoin="round" stroke-miterlimit="10" stroke-width="2"/>
    <g id="Groupe_431" data-name="Groupe 431" transform="translate(547.321 90.488)">
      <line id="Ligne_114" data-name="Ligne 114" x2="1.348" y2="8.278" transform="translate(34.954 0)" fill="none" stroke="#fff" stroke-miterlimit="10" stroke-width="2"/>
      <line id="Ligne_115" data-name="Ligne 115" x2="1.348" y2="8.278" transform="translate(27.964 1.138)" fill="none" stroke="#fff" stroke-miterlimit="10" stroke-width="2"/>
      <line id="Ligne_116" data-name="Ligne 116" x2="1.348" y2="8.278" transform="translate(20.973 2.276)" fill="none" stroke="#fff" stroke-miterlimit="10" stroke-width="2"/>
      <line id="Ligne_117" data-name="Ligne 117" x2="1.348" y2="8.278" transform="translate(13.982 3.415)" fill="none" stroke="#fff" stroke-miterlimit="10" stroke-width="2"/>
      <line id="Ligne_118" data-name="Ligne 118" x2="1.348" y2="8.278" transform="translate(6.991 4.553)" fill="none" stroke="#fff" stroke-miterlimit="10" stroke-width="2"/>
      <line id="Ligne_119" data-name="Ligne 119" x2="1.348" y2="8.278" transform="translate(0 5.691)" fill="none" stroke="#fff" stroke-miterlimit="10" stroke-width="2"/>
    </g>
    <rect id="Rectangle_107" data-name="Rectangle 107" width="16.263" height="16.263" transform="translate(561.485 114.867)" fill="#d60036"/>
  </g>
</svg>
