<svg xmlns="http://www.w3.org/2000/svg" xmlns:xlink="http://www.w3.org/1999/xlink" width="3105.453" height="4230.494" viewBox="0 0 3105.453 4230.494">
  <defs>
    <clipPath id="clip-path">
      <rect width="3105.453" height="4230.494" fill="none"/>
    </clipPath>
    <filter id="Tracé_193" x="0" y="2577.739" width="3088.439" height="1601.349" filterUnits="userSpaceOnUse">
      <feOffset input="SourceAlpha"/>
      <feGaussianBlur stdDeviation="12.5" result="blur"/>
      <feFlood/>
      <feComposite operator="in" in2="blur"/>
      <feComposite in="SourceGraphic"/>
    </filter>
    <filter id="Tracé_190" x="192.304" y="1498.721" width="2913.149" height="977.111" filterUnits="userSpaceOnUse">
      <feOffset input="SourceAlpha"/>
      <feGaussianBlur stdDeviation="12.5" result="blur-2"/>
      <feFlood/>
      <feComposite operator="in" in2="blur-2"/>
      <feComposite in="SourceGraphic"/>
    </filter>
    <filter id="Tracé_189" x="475.357" y="255.525" width="2548.972" height="1193.765" filterUnits="userSpaceOnUse">
      <feOffset input="SourceAlpha"/>
      <feGaussianBlur stdDeviation="12.5" result="blur-3"/>
      <feFlood/>
      <feComposite operator="in" in2="blur-3"/>
      <feComposite in="SourceGraphic"/>
    </filter>
    <filter id="Tracé_191" x="503.813" y="0" width="2382.127" height="542.765" filterUnits="userSpaceOnUse">
      <feOffset input="SourceAlpha"/>
      <feGaussianBlur stdDeviation="12.5" result="blur-4"/>
      <feFlood/>
      <feComposite operator="in" in2="blur-4"/>
      <feComposite in="SourceGraphic"/>
    </filter>
  </defs>
  <g id="Grille_de_répétition_2" data-name="Grille de répétition 2" clip-path="url(#clip-path)">
    <g id="Groupe_407" data-name="Groupe 407" transform="translate(606.637 215.782)">
      <g transform="matrix(1, 0, 0, 1, -606.64, -215.78)" filter="url(#Tracé_193)">
        <path id="Tracé_193-2" data-name="Tracé 193" d="M363.978,577.241l2518.563-130.09L3022.357,1973.5,8.918,1713.5Z" transform="translate(28.58 2168.09)" fill="#141414"/>
      </g>
      <g transform="matrix(1, 0, 0, 1, -606.64, -215.78)" filter="url(#Tracé_190)">
        <path id="Tracé_190-2" data-name="Tracé 190" d="M60.993-59.777l2784.9,154.795L2735.762,842.334,7.745,379.061Z" transform="translate(222.06 1596)" fill="#141414"/>
      </g>
      <g transform="matrix(1, 0, 0, 1, -606.64, -215.78)" filter="url(#Tracé_189)">
        <path id="Tracé_189-2" data-name="Tracé 189" d="M508.446,217.687,2896.217-481.187l34.938,893.394L457.184,637.578Z" transform="translate(55.67 774.21)" fill="#141414"/>
      </g>
      <g transform="matrix(1, 0, 0, 1, -606.64, -215.78)" filter="url(#Tracé_191)">
        <path id="Tracé_191-2" data-name="Tracé 191" d="M629.381-287.544,2842.941-151.167l93.566,119.85L629.381,180.221Z" transform="translate(-88.07 325.04)" fill="#141414"/>
      </g>
    </g>
  </g>
</svg>
