<svg xmlns="http://www.w3.org/2000/svg" width="39.909" height="27.414" viewBox="0 0 39.909 27.414">
  <g id="Groupe_32" data-name="Groupe 32" transform="translate(-1196.711 -43.461)">
    <path id="Tracé_6" data-name="Tracé 6" d="M0,19.88,19.814,0l1.414,1.475L1.493,21.211Z" transform="translate(1196.711 49.744) rotate(-13)" fill="#d60036"/>
    <path id="Tracé_7" data-name="Tracé 7" d="M0,8.658,8.258.109a3.111,3.111,0,0,1,1.6,0,3.734,3.734,0,0,1,1.383.982L13.1,3.2l-2.983,2.51s.846,1.21,1.128,1.673a9.738,9.738,0,0,1,.618,1.673l3.092-2.365a4.934,4.934,0,0,1,.691,1.382c.427,1.1,1.019,3.02,1.019,3.02l-3.092,2a9.5,9.5,0,0,0,.655,1.783,8.045,8.045,0,0,0,1.019,1.491l3.347-1.782a5.543,5.543,0,0,0,1.273,1.564,14.546,14.546,0,0,0,2.256,1.492L18.408,19.5a8.211,8.211,0,0,1-1.746-1.128,9.409,9.409,0,0,1-1.419-1.637l-3.165,1.928a7.569,7.569,0,0,0,1.237,1.31,9.456,9.456,0,0,0,1.637,1.019L11.86,22.737a2.282,2.282,0,0,1-1.055.291c-.573,0-.77-.031-1.625-.613A4.427,4.427,0,0,1,7.385,20.7,17.052,17.052,0,0,1,5.639,17.39a46.988,46.988,0,0,0-1.855-4.8,5.258,5.258,0,0,0-1.637-2.365A8.566,8.566,0,0,0,0,8.658Z" transform="translate(1209.887 48.436) rotate(-13)" fill="#d60036"/>
  </g>
</svg>
