<svg xmlns="http://www.w3.org/2000/svg" viewBox="0 0 176.2 95.11"><defs><style>.cls-1{fill:#efecef;}.cls-2{fill:none;stroke:#141314;stroke-miterlimit:10;stroke-width:2px;}</style></defs><title>eye_close</title><g id="Calque_2" data-name="Calque 2"><g id="Calque_1-2" data-name="Calque 1"><path class="cls-1" d="M6.75,58.16c20,19.22,88,72.58,167.68-.08a5.45,5.45,0,0,0,0-8C94.7-22.65,26.69,30.75,6.75,50A5.68,5.68,0,0,0,6.75,58.16Z"/><path class="cls-2" d="M2.75,46.16c20,19.22,88,72.58,167.68-.08a5.45,5.45,0,0,0,0-8C90.7-34.65,22.69,18.75,2.75,38A5.68,5.68,0,0,0,2.75,46.16Z"/><circle class="cls-2" cx="86.33" cy="41.61" r="40.5"/><path class="cls-2" d="M109.83,41.61a23.5,23.5,0,1,1-23.5-23.5,22.53,22.53,0,0,1,3.41.25l-.2,2.08L87.88,38.23l16.24-7.45,2.44-1.12A23.32,23.32,0,0,1,109.83,41.61Z"/></g></g></svg>