<svg xmlns="http://www.w3.org/2000/svg" width="452.03" height="546.678" viewBox="0 0 452.03 546.678">
  <g id="Groupe_336" data-name="Groupe 336" transform="translate(-34.762 -353.322)">
    <g id="Groupe_331" data-name="Groupe 331" transform="translate(-19.738 -93.178)">
      <path id="Tracé_173" data-name="Tracé 173" d="M1677.753,165.185H1572.788a1.259,1.259,0,0,1-1.12-.682l-49.458-96.17a1.258,1.258,0,0,1,1.118-1.833h154.425" transform="translate(-1358.533 398.008)" fill="#eab713"/>
      <path id="Tracé_174" data-name="Tracé 174" d="M1596,165.185h104.966a1.259,1.259,0,0,0,1.12-.682l49.458-96.17a1.257,1.257,0,0,0-1.118-1.833H1596" transform="translate(-1328.237 398.008)" fill="#eab713"/>
      <path id="Tracé_171" data-name="Tracé 171" d="M1813.983,171.111l-75.425,150.936a1.25,1.25,0,0,1-2.081.24,176.133,176.133,0,0,0-89.152-56.964,1.249,1.249,0,0,1-.8-1.766l97.731-195.474a1.257,1.257,0,0,1,2.174-.131l67.477,101.9A1.256,1.256,0,0,1,1813.983,171.111Z" transform="translate(-1307.586 398.371)" fill="#eab713"/>
      <path id="Tracé_175" data-name="Tracé 175" d="M1630.428,265.319a176.129,176.129,0,0,0-89.156,56.97,1.25,1.25,0,0,1-2.079-.235l-75.421-149.539a1.257,1.257,0,0,1,.069-1.255l67.485-103.292a1.258,1.258,0,0,1,2.178.125l97.724,195.46A1.249,1.249,0,0,1,1630.428,265.319Z" transform="translate(-1382.478 398.375)" fill="#eab713"/>
      <ellipse id="Ellipse_46" data-name="Ellipse 46" cx="159.5" cy="159" rx="159.5" ry="159" transform="translate(133.739 675.178)" fill="#eab713"/>
      <path id="Tracé_176" data-name="Tracé 176" d="M1660.987,154.185H1555.252L1504.5,55.5h156.487" transform="translate(-1365.732 393.5)" fill="none" stroke="#efecef" stroke-linecap="round" stroke-linejoin="round" stroke-width="5"/>
      <path id="Tracé_177" data-name="Tracé 177" d="M1579,154.185h105.734L1735.487,55.5H1579" transform="translate(-1335.203 393.5)" fill="none" stroke="#efecef" stroke-linecap="round" stroke-linejoin="round" stroke-width="5"/>
      <path id="Tracé_172" data-name="Tracé 172" d="M1797.47,159.824l-76.608,153.3A176.139,176.139,0,0,0,1629,254.294L1728.39,55.5Z" transform="translate(-1314.714 393.5)" fill="none" stroke="#efecef" stroke-linecap="round" stroke-linejoin="round" stroke-width="5"/>
      <path id="Tracé_178" data-name="Tracé 178" d="M1614.97,254.294a176.139,176.139,0,0,0-91.862,58.83L1446.5,161.234,1515.58,55.5Z" transform="translate(-1389.5 393.5)" fill="none" stroke="#efecef" stroke-linecap="round" stroke-linejoin="round" stroke-width="5"/>
      <ellipse id="Ellipse_47" data-name="Ellipse 47" cx="159" cy="159.5" rx="159" ry="159.5" transform="translate(111.739 659.178)" fill="none" stroke="#efecef" stroke-linecap="round" stroke-linejoin="round" stroke-width="5"/>
    </g>
    <text id="_1" data-name="1" transform="translate(236 825)" fill="#2b2b2b" stroke="#eab713" stroke-linejoin="round" stroke-width="2.5" font-size="235" font-family="Montserrat-SemiBold, Montserrat" font-weight="600"><tspan x="0" y="0">1</tspan></text>
    <text id="_1-2" data-name="1" transform="translate(220 814)" fill="none" stroke="#fff" stroke-linejoin="round" stroke-width="5" font-size="235" font-family="Montserrat-SemiBold, Montserrat" font-weight="600"><tspan x="0" y="0">1</tspan></text>
  </g>
</svg>
