<svg xmlns="http://www.w3.org/2000/svg" width="38.389" height="52.606" viewBox="0 0 38.389 52.606">
  <g id="Groupe_451" data-name="Groupe 451" transform="translate(-6177 -8101.948)">
    <path id="Tracé_169" data-name="Tracé 169" d="M10.576,0A10.576,10.576,0,1,1,0,10.576,10.576,10.576,0,0,1,10.576,0Z" transform="translate(6188.126 8106.196)" fill="#d60036"/>
    <path id="Tracé_167" data-name="Tracé 167" d="M959.127,593.543H925c.021-13.667,7.653-24.736,17.063-24.736S959.105,579.876,959.127,593.543Z" transform="translate(5256.262 7561.011)" fill="#d60036"/>
    <g id="Ellipse_44" data-name="Ellipse 44" transform="translate(6184 8101.948)" fill="none" stroke="#000" stroke-miterlimit="10" stroke-width="2">
      <circle cx="11.076" cy="11.076" r="11.076" stroke="none"/>
      <circle cx="11.076" cy="11.076" r="10.076" fill="none"/>
    </g>
    <g id="Tracé_168" data-name="Tracé 168" transform="translate(5264 7568.542)" fill="none" stroke-miterlimit="10">
      <path d="M950,582.938H913c.023-13.885,8.3-25.131,18.5-25.131S949.98,569.052,950,582.938Z" stroke="none"/>
      <path d="M 947.9390258789062 580.9375610351562 C 947.783203125 578.4534301757812 947.3441162109375 576.04296875 946.628173828125 573.7489624023438 C 945.7603149414062 570.96826171875 944.5259399414062 568.4791870117188 942.9593505859375 566.3509521484375 C 939.8531494140625 562.1310424804688 935.7839965820312 559.8070068359375 931.5015869140625 559.8070068359375 C 927.2191772460938 559.8070068359375 923.1500854492188 562.1310424804688 920.0438232421875 566.3509521484375 C 918.4772338867188 568.479248046875 917.2428588867188 570.96826171875 916.375 573.7489624023438 C 915.6589965820312 576.04296875 915.219970703125 578.4534301757812 915.0640869140625 580.9375610351562 L 947.9390258789062 580.9375610351562 M 950.003173828125 582.9375610351562 L 913 582.9375610351562 C 913.0233154296875 569.0524291992188 921.2977905273438 557.8070068359375 931.5015869140625 557.8070068359375 C 941.7055053710938 557.8070068359375 949.979736328125 569.0524291992188 950.003173828125 582.9375610351562 Z" stroke="none" fill="#000"/>
    </g>
  </g>
</svg>
