<svg xmlns="http://www.w3.org/2000/svg" width="45.572" height="50.502" viewBox="0 0 45.572 50.502">
  <g id="Groupe_421" data-name="Groupe 421" transform="translate(-1393.897 -127.997)">
    <g id="Groupe_419" data-name="Groupe 419" transform="translate(2 -72.552)">
      <path id="Tracé_170" data-name="Tracé 170" d="M1394.537,5404.164V5378.47l22.665-19.984,20.127,18.189v27.489Z" transform="translate(0.14 -5153.112)" fill="#d60036"/>
    </g>
    <g id="fil_actu_icon" transform="translate(1394.397 128.619)">
      <path id="Tracé_99" data-name="Tracé 99" d="M987.31,440.167H966V411.753l22.131-18.664" transform="translate(-966 -393)" fill="none" stroke="#000" stroke-linecap="round" stroke-linejoin="round" stroke-width="1"/>
      <path id="Tracé_100" data-name="Tracé 100" d="M1116,440.167h21.31V411.753l-20.458-18.669" transform="translate(-1094.69 -393)" fill="none" stroke="#000" stroke-linecap="round" stroke-linejoin="round" stroke-width="1"/>
      <path id="Rectangle_54" data-name="Rectangle 54" d="M5,0H5a5,5,0,0,1,5,5V17a0,0,0,0,1,0,0H0a0,0,0,0,1,0,0V5A5,5,0,0,1,5,0Z" transform="translate(16.603 29.796)" fill="none" stroke="#000" stroke-linecap="round" stroke-linejoin="round" stroke-width="1"/>
    </g>
  </g>
</svg>
