<svg xmlns="http://www.w3.org/2000/svg" width="55.832" height="55.144" viewBox="0 0 55.832 55.144">
  <g id="rouge_snb" data-name="rouge snb" transform="translate(-540.852 -88.504)">
    <path id="Tracé_230" data-name="Tracé 230" d="M566.893,205.46v33.717h49.54V205.46Zm27.115,21.662h-3.2v-7.079H589.18v-2.415h4.828Z" transform="translate(-19.749 -95.529)" fill="#d60036"/>
    <rect id="Rectangle_104" data-name="Rectangle 104" width="49.54" height="9.161" transform="translate(596.108 102.954) rotate(170.753)" fill="#d60036"/>
    <g id="Groupe_430" data-name="Groupe 430" transform="translate(550.513 92.819)">
      <line id="Ligne_108" data-name="Ligne 108" x2="1.462" y2="8.982" transform="translate(37.927 0)" fill="#d60036"/>
      <line id="Ligne_109" data-name="Ligne 109" x2="1.462" y2="8.982" transform="translate(30.342 1.235)" fill="#d60036"/>
      <line id="Ligne_110" data-name="Ligne 110" x2="1.462" y2="8.982" transform="translate(22.756 2.47)" fill="#d60036"/>
      <line id="Ligne_111" data-name="Ligne 111" x2="1.462" y2="8.982" transform="translate(15.171 3.705)" fill="#d60036"/>
      <line id="Ligne_112" data-name="Ligne 112" x2="1.462" y2="8.982" transform="translate(7.585 4.94)" fill="#d60036"/>
      <line id="Ligne_113" data-name="Ligne 113" x2="1.462" y2="8.982" transform="translate(0 6.175)" fill="#d60036"/>
    </g>
    <rect id="Rectangle_105" data-name="Rectangle 105" width="49.54" height="33.717" transform="translate(592.944 140.388) rotate(180)" fill="none" stroke="#000" stroke-linejoin="round" stroke-miterlimit="10" stroke-width="2"/>
    <rect id="Rectangle_106" data-name="Rectangle 106" width="49.54" height="9.161" transform="translate(592.368 98.694) rotate(170.753)" fill="none" stroke="#000" stroke-linejoin="round" stroke-miterlimit="10" stroke-width="2"/>
    <g id="Groupe_431" data-name="Groupe 431" transform="translate(547.773 90.559)">
      <line id="Ligne_114" data-name="Ligne 114" x2="1.462" y2="8.982" transform="translate(37.927 0)" fill="none" stroke="#000" stroke-miterlimit="10" stroke-width="2"/>
      <line id="Ligne_115" data-name="Ligne 115" x2="1.462" y2="8.982" transform="translate(30.342 1.235)" fill="none" stroke="#000" stroke-miterlimit="10" stroke-width="2"/>
      <line id="Ligne_116" data-name="Ligne 116" x2="1.462" y2="8.982" transform="translate(22.756 2.47)" fill="none" stroke="#000" stroke-miterlimit="10" stroke-width="2"/>
      <line id="Ligne_117" data-name="Ligne 117" x2="1.462" y2="8.982" transform="translate(15.171 3.705)" fill="none" stroke="#000" stroke-miterlimit="10" stroke-width="2"/>
      <line id="Ligne_118" data-name="Ligne 118" x2="1.462" y2="8.982" transform="translate(7.585 4.94)" fill="none" stroke="#000" stroke-miterlimit="10" stroke-width="2"/>
      <line id="Ligne_119" data-name="Ligne 119" x2="1.462" y2="8.982" transform="translate(0 6.175)" fill="none" stroke="#000" stroke-miterlimit="10" stroke-width="2"/>
    </g>
    <rect id="Rectangle_107" data-name="Rectangle 107" width="17.646" height="17.646" transform="translate(563.142 117.011)" fill="#d60036"/>
  </g>
</svg>
