<svg xmlns="http://www.w3.org/2000/svg" width="39.336" height="52.606" viewBox="0 0 39.336 52.606">
  <g id="Groupe_328" data-name="Groupe 328" transform="translate(-6176.053 -8101.948)">
    <path id="Tracé_169" data-name="Tracé 169" d="M10.576,0A10.576,10.576,0,1,1,0,10.576,10.576,10.576,0,0,1,10.576,0Z" transform="translate(6188.126 8106.196)" fill="#d60036"/>
    <path id="Tracé_167" data-name="Tracé 167" d="M959.127,593.543H925c.021-13.667,7.653-24.736,17.063-24.736S959.105,579.876,959.127,593.543Z" transform="translate(5256.262 7561.011)" fill="#d60036"/>
    <g id="Ellipse_44" data-name="Ellipse 44" transform="translate(6183.487 8101.948)" fill="none" stroke="#efecef" stroke-miterlimit="10" stroke-width="2">
      <circle cx="12.076" cy="12.076" r="12.076" stroke="none"/>
      <circle cx="12.076" cy="12.076" r="11.076" fill="none"/>
    </g>
    <g id="Tracé_168" data-name="Tracé 168" transform="translate(5263.053 7569.542)" fill="none" stroke-miterlimit="10">
      <path d="M951.074,582.938H913c.024-13.885,8.538-25.131,19.037-25.131S951.049,569.052,951.074,582.938Z" stroke="none"/>
      <path d="M 949.0074462890625 580.9375610351562 C 948.84716796875 578.4588623046875 948.396240234375 576.0537719726562 947.6611328125 573.7646484375 C 946.7691040039062 570.9869384765625 945.5 568.5 943.8889770507812 566.3728637695312 C 940.6821899414062 562.1387939453125 936.4729614257812 559.8070068359375 932.0368041992188 559.8070068359375 C 927.6005859375 559.8070068359375 923.3914184570312 562.1387939453125 920.1845703125 566.3728637695312 C 918.5735473632812 568.5 917.304443359375 570.9869384765625 916.4124145507812 573.7645874023438 C 915.6773071289062 576.0537719726562 915.2263793945312 578.4589233398438 915.0661010742188 580.9375610351562 L 949.0074462890625 580.9375610351562 M 951.0735473632812 582.9375610351562 L 913.0000610351562 582.9375610351562 C 913.02392578125 569.0524291992188 921.5377807617188 557.8070068359375 932.0368041992188 557.8070068359375 C 942.5358276367188 557.8070068359375 951.0494995117188 569.0524291992188 951.0735473632812 582.9375610351562 Z" stroke="none" fill="#efecef"/>
    </g>
  </g>
</svg>
