<svg xmlns="http://www.w3.org/2000/svg" viewBox="0 0 102 129"><defs><style>.cls-1{fill:#d60036;}.cls-2{fill:#141314;}</style></defs><title>Fichier 1</title><g id="Calque_2" data-name="Calque 2"><g id="Calque_2-2" data-name="Calque 2"><path class="cls-1" d="M78,30.5a30.54,30.54,0,0,1-.29,4.2L44.44,56.2l-2.61,4.27L0,129V0L29.93,5.57l42.94,8A30.35,30.35,0,0,1,78,30.5Z"/><path class="cls-1" d="M78,30.5a30.5,30.5,0,1,1-5.13-16.93A30.54,30.54,0,0,1,78,30.5Z"/><path class="cls-1" d="M48,0H0S13,42,13,43,48,61,48,61Z"/><polygon class="cls-2" points="0 49 0 0 102 129 0 49"/></g></g></svg>