<?xml version="1.0" standalone="no"?>
<!DOCTYPE svg PUBLIC "-//W3C//DTD SVG 20010904//EN"
 "http://www.w3.org/TR/2001/REC-SVG-20010904/DTD/svg10.dtd">
<svg version="1.0" xmlns="http://www.w3.org/2000/svg"
 width="688.000000pt" height="688.000000pt" viewBox="0 0 688.000000 688.000000"
 preserveAspectRatio="xMidYMid meet">
<metadata>
Created by potrace 1.11, written by Peter Selinger 2001-2013
</metadata>
<g transform="translate(0.000000,688.000000) scale(0.100000,-0.100000)"
fill="#000000" stroke="none">
<path d="M6609 6186 c-13 -5 -76 -34 -139 -64 -203 -95 -234 -110 -300 -140
-36 -16 -96 -44 -135 -62 -76 -36 -229 -108 -340 -160 -38 -18 -113 -53 -165
-78 -52 -24 -126 -59 -165 -77 -38 -18 -106 -49 -150 -70 -44 -21 -107 -50
-140 -65 -33 -15 -109 -51 -170 -80 -60 -29 -137 -65 -170 -80 -66 -31 -182
-85 -353 -166 -63 -30 -115 -54 -117 -54 -2 0 -59 -26 -127 -59 -226 -108
-360 -171 -363 -171 -11 0 -303 -144 -326 -161 -90 -64 -96 -218 -12 -297 77
-71 149 -72 297 -3 59 27 109 50 111 50 3 1 33 15 68 33 34 18 64 32 67 33 3
1 32 14 65 29 168 80 210 100 215 101 3 1 39 18 80 37 259 123 357 169 485
228 65 30 195 91 345 162 52 25 117 55 144 68 26 12 118 55 202 95 85 41 156
74 157 74 1 0 64 29 140 65 76 36 140 66 142 66 1 0 61 27 131 61 303 144 331
156 348 157 5 0 12 6 17 14 12 20 30 -3 30 -38 -1 -34 -1 -48 -2 -114 0 -27 0
-65 0 -82 0 -104 0 -165 0 -178 1 -8 1 -35 0 -60 -1 -25 -1 -60 0 -77 0 -30 1
-80 0 -165 0 -104 0 -165 0 -178 1 -8 1 -35 0 -60 -1 -25 -1 -60 0 -77 0 -30
1 -80 0 -165 0 -77 0 -164 0 -178 0 -8 0 -44 0 -80 0 -36 0 -72 0 -80 1 -8 0
-37 0 -65 -1 -27 -1 -62 -1 -77 1 -26 2 -84 1 -160 0 -104 0 -165 0 -178 1 -8
1 -35 0 -60 -1 -25 -1 -60 0 -77 0 -30 1 -80 0 -165 0 -104 0 -165 0 -178 1
-8 1 -35 0 -60 -1 -25 -1 -60 0 -77 0 -30 1 -80 0 -165 0 -103 0 -164 0 -175
1 -7 1 -19 2 -25 0 -7 0 -49 0 -93 0 -44 0 -90 0 -102 0 -76 -4 -163 -8 -163
-3 0 -37 15 -76 34 -220 104 -374 176 -492 231 -33 15 -88 41 -121 56 -34 16
-67 29 -73 29 -6 0 -11 5 -11 10 0 6 -5 10 -11 10 -6 0 -74 30 -152 66 -78 37
-180 85 -227 107 -118 55 -152 66 -196 62 -73 -6 -135 -47 -168 -112 -20 -40
-21 -120 -1 -164 32 -74 33 -74 415 -252 151 -70 217 -100 300 -140 86 -40
122 -57 400 -187 85 -39 191 -89 235 -110 154 -73 260 -123 301 -140 44 -19
131 -23 152 -7 6 5 12 6 12 1 0 -5 4 -4 8 1 4 6 21 20 37 32 17 11 40 40 52
63 l23 42 0 2036 c0 1369 -3 2049 -10 2074 -14 50 -80 114 -130 128 -45 12
-96 11 -131 -4z"/>
<path d="M179 5478 c-57 -8 -103 -32 -129 -66 -11 -15 -25 -34 -32 -42 -17
-19 -24 -3018 -8 -3034 6 -6 10 -17 10 -25 0 -21 77 -89 117 -102 112 -37 250
49 259 160 2 20 4 38 5 41 1 3 1 8 0 13 -2 10 -2 46 0 259 0 97 -2 182 -6 187
-3 6 -3 11 2 11 4 0 8 23 8 50 0 28 -2 50 -6 50 -3 0 -2 24 1 54 4 34 2 52 -4
49 -5 -4 -6 -1 -1 6 7 12 9 71 6 176 -1 22 0 63 1 92 2 28 -1 49 -6 46 -5 -4
-6 0 -1 6 6 11 8 57 5 161 -1 8 0 67 1 131 1 64 -2 122 -5 128 -4 6 -4 11 1
11 4 0 8 23 8 50 0 28 -3 50 -7 50 -4 0 -5 6 -2 13 9 25 9 255 0 250 -5 -4 -6
0 -1 7 5 7 7 52 6 99 -1 47 -2 93 -2 101 3 242 2 371 -4 379 -3 6 -3 11 2 11
4 0 8 23 8 50 0 28 -4 50 -8 50 -5 0 -6 4 -3 9 4 5 7 45 8 89 l1 80 938 0 938
1 57 -112 c31 -62 80 -157 109 -212 29 -55 100 -192 157 -305 58 -113 147
-286 198 -385 l92 -179 -24 -46 c-14 -25 -44 -81 -68 -125 -23 -44 -46 -85
-51 -90 -4 -6 -21 -35 -37 -65 -16 -30 -38 -71 -49 -90 -11 -19 -35 -62 -53
-95 -18 -33 -50 -91 -71 -128 -22 -38 -39 -71 -39 -73 0 -3 -16 -29 -35 -59
-19 -30 -32 -55 -29 -55 3 0 -3 -12 -14 -27 -11 -16 -34 -55 -51 -88 -18 -33
-36 -67 -41 -75 -30 -51 -95 -166 -95 -170 -1 -5 -17 -34 -42 -75 -51 -84 -86
-185 -72 -207 5 -7 9 -21 9 -30 0 -10 27 -74 60 -144 33 -69 60 -128 60 -130
0 -2 18 -41 39 -86 83 -176 141 -300 141 -303 0 -2 21 -47 46 -102 25 -54 84
-181 131 -283 47 -102 93 -201 103 -221 l17 -36 -564 -1 c-557 0 -563 0 -608
-22 -25 -12 -54 -34 -65 -48 -11 -15 -25 -33 -32 -41 -6 -8 -12 -46 -12 -87
-1 -65 2 -77 29 -115 17 -23 50 -53 74 -66 l45 -23 1501 2 c1316 3 1503 5
1519 18 45 37 80 78 94 110 12 30 14 233 14 1525 -1 820 -3 1510 -6 1534 -6
57 -49 118 -104 147 -34 18 -56 22 -106 20 -36 -1 -70 -8 -81 -17 -59 -48 -84
-79 -95 -119 -9 -34 -12 -391 -12 -1431 l0 -1386 -575 -1 -575 0 -35 76 c-20
42 -60 128 -89 191 -30 62 -54 114 -54 116 0 2 -21 47 -46 102 -25 54 -59 127
-76 163 -16 36 -40 88 -53 115 -13 28 -37 79 -53 115 -16 36 -50 108 -74 160
-25 52 -53 113 -63 135 -9 22 -32 72 -50 110 -18 39 -29 75 -25 80 9 12 32 53
90 160 23 44 46 85 50 90 4 6 22 37 40 70 18 33 62 114 98 180 36 66 68 122
71 125 4 3 16 25 29 50 21 42 45 85 102 185 13 22 30 54 38 70 8 17 24 42 34
58 11 15 17 27 14 27 -3 0 9 24 27 53 18 28 39 66 47 82 8 17 17 32 20 35 3 3
11 16 17 30 7 14 30 57 51 96 35 63 39 78 37 130 -2 51 -12 77 -67 184 -36 69
-118 229 -183 355 -65 127 -122 236 -127 243 -6 6 -7 12 -3 12 5 0 2 8 -6 18
-9 9 -48 82 -88 162 -41 80 -77 150 -82 155 -4 6 -12 22 -18 37 l-10 26 236 0
c228 1 238 2 282 25 117 60 146 211 60 312 -40 46 -102 67 -204 67 -49 0 -94
-1 -100 -2 -5 -1 -14 -2 -20 -1 -30 6 -2769 5 -2806 -1z"/>
<path d="M1345 4553 c-199 -48 -332 -166 -402 -357 -18 -50 -26 -207 -12 -261
5 -22 11 -48 14 -58 11 -47 76 -148 130 -202 66 -67 150 -116 236 -138 54 -14
197 -16 248 -3 51 12 97 29 111 41 8 7 25 16 38 19 12 4 22 12 22 17 0 5 5 9
11 9 16 0 119 101 119 117 0 7 4 13 9 13 11 0 67 125 76 170 4 19 9 53 10 75
2 22 4 45 6 50 2 6 0 26 -4 45 -3 19 -9 51 -12 70 -8 54 -69 171 -117 225 -50
57 -138 116 -217 146 -55 21 -215 34 -266 22z"/>
</g>
</svg>
